{
	"asset":{
		"generator":"Khronos glTF Blender I/O v3.5.30",
		"version":"2.0"
	},
	"scene":0,
	"scenes":[
		{
			"name":"Scene",
			"nodes":[
				0
			]
		}
	],
	"nodes":[
		{
			"mesh":0,
			"name":"cable",
			"rotation":[
				0.7071068286895752,
				0,
				0,
				0.7071068286895752
			],
			"scale":[
				3.0761945247650146,
				3.0761945247650146,
				3.0761945247650146
			],
			"translation":[
				75.37775421142578,
				-30.87036895751953,
				-6.742120742797852
			]
		}
	],
	"materials":[
		{
			"doubleSided":true,
			"name":"Black plastic",
			"pbrMetallicRoughness":{
				"baseColorFactor":[
					0.06997819989919662,
					0.06997819989919662,
					0.06997819989919662,
					1
				],
				"metallicFactor":0,
				"roughnessFactor":0.5
			}
		}
	],
	"meshes":[
		{
			"name":"Denso Small all.003",
			"primitives":[
				{
					"attributes":{
						"POSITION":0,
						"NORMAL":1
					},
					"indices":2,
					"material":0
				}
			]
		}
	],
	"accessors":[
		{
			"bufferView":0,
			"componentType":5126,
			"count":3823,
			"max":[
				8.825756072998047,
				2.136566162109375,
				2.1050281524658203
			],
			"min":[
				-5.174243927001953,
				-2.153432846069336,
				-2.104961395263672
			],
			"type":"VEC3"
		},
		{
			"bufferView":1,
			"componentType":5126,
			"count":3823,
			"type":"VEC3"
		},
		{
			"bufferView":2,
			"componentType":5123,
			"count":7287,
			"type":"SCALAR"
		}
	],
	"bufferViews":[
		{
			"buffer":0,
			"byteLength":45876,
			"byteOffset":0,
			"target":34962
		},
		{
			"buffer":0,
			"byteLength":45876,
			"byteOffset":45876,
			"target":34962
		},
		{
			"buffer":0,
			"byteLength":14574,
			"byteOffset":91752,
			"target":34963
		}
	],
	"buffers":[
		{
			"byteLength":106328,
			"uri":"data:application/octet-stream;base64,"
		}
	]
}
