{
	"asset":{
		"generator":"Khronos glTF Blender I/O v3.5.30",
		"version":"2.0"
	},
	"scene":0,
	"scenes":[
		{
			"name":"Scene",
			"nodes":[
				0
			]
		}
	],
	"nodes":[
		{
			"mesh":0,
			"name":"Claw finguer 1.1",
			"rotation":[
				-0.0017554315272718668,
				0,
				-0.9999984502792358,
				2.0956707658115192e-07
			],
			"scale":[
				1.0138095617294312,
				1.9873214960098267,
				1.0138092041015625
			],
			"translation":[
				-114.23381042480469,
				127.9801025390625,
				7.991189002990723
			]
		}
	],
	"materials":[
		{
			"doubleSided":true,
			"name":"metal",
			"pbrMetallicRoughness":{}
		}
	],
	"meshes":[
		{
			"name":"Claw 20150710-21536-N4H17J-0.005",
			"primitives":[
				{
					"attributes":{
						"POSITION":0,
						"NORMAL":1
					},
					"indices":2,
					"material":0
				}
			]
		}
	],
	"accessors":[
		{
			"bufferView":0,
			"componentType":5126,
			"count":1332,
			"max":[
				7.630301475524902,
				0.41779598593711853,
				2.65486478805542
			],
			"min":[
				-7.352569103240967,
				-0.41779643297195435,
				-1.8263429403305054
			],
			"type":"VEC3"
		},
		{
			"bufferView":1,
			"componentType":5126,
			"count":1332,
			"type":"VEC3"
		},
		{
			"bufferView":2,
			"componentType":5123,
			"count":2640,
			"type":"SCALAR"
		}
	],
	"bufferViews":[
		{
			"buffer":0,
			"byteLength":15984,
			"byteOffset":0,
			"target":34962
		},
		{
			"buffer":0,
			"byteLength":15984,
			"byteOffset":15984,
			"target":34962
		},
		{
			"buffer":0,
			"byteLength":5280,
			"byteOffset":31968,
			"target":34963
		}
	],
	"buffers":[
		{
			"byteLength":37248,
			"uri":"data:application/octet-stream;base64,"
		}
	]
}
