{
	"asset":{
		"generator":"Khronos glTF Blender I/O v3.5.30",
		"version":"2.0"
	},
	"scene":0,
	"scenes":[
		{
			"name":"Scene",
			"nodes":[
				0
			]
		}
	],
	"nodes":[
		{
			"mesh":0,
			"name":"Claw finguer 1.006",
			"rotation":[
				0,
				0.001755431410856545,
				0,
				1
			],
			"scale":[
				-1.0138095617294312,
				-1.9873214960098267,
				-1.0138092041015625
			],
			"translation":[
				-121.17908477783203,
				126.91837310791016,
				-6.336369514465332
			]
		}
	],
	"materials":[
		{
			"doubleSided":true,
			"name":"Black plastic",
			"pbrMetallicRoughness":{
				"baseColorFactor":[
					0.06997819989919662,
					0.06997819989919662,
					0.06997819989919662,
					1
				],
				"metallicFactor":0,
				"roughnessFactor":0.5
			}
		}
	],
	"meshes":[
		{
			"name":"Claw 20150710-21536-N4H17J-0.014",
			"primitives":[
				{
					"attributes":{
						"POSITION":0,
						"NORMAL":1
					},
					"indices":2,
					"material":0
				}
			]
		}
	],
	"accessors":[
		{
			"bufferView":0,
			"componentType":5126,
			"count":410,
			"max":[
				5.289331436157227,
				1.202135443687439,
				2.06877064704895
			],
			"min":[
				-5.253750324249268,
				-1.3046412467956543,
				-1.0316811800003052
			],
			"type":"VEC3"
		},
		{
			"bufferView":1,
			"componentType":5126,
			"count":410,
			"type":"VEC3"
		},
		{
			"bufferView":2,
			"componentType":5123,
			"count":828,
			"type":"SCALAR"
		}
	],
	"bufferViews":[
		{
			"buffer":0,
			"byteLength":4920,
			"byteOffset":0,
			"target":34962
		},
		{
			"buffer":0,
			"byteLength":4920,
			"byteOffset":4920,
			"target":34962
		},
		{
			"buffer":0,
			"byteLength":1656,
			"byteOffset":9840,
			"target":34963
		}
	],
	"buffers":[
		{
			"byteLength":11496,
			"uri":"data:application/octet-stream;base64,"
		}
	]
}
