{
	"asset":{
		"generator":"Khronos glTF Blender I/O v3.5.30",
		"version":"2.0"
	},
	"scene":0,
	"scenes":[
		{
			"name":"Scene",
			"nodes":[
				0
			]
		}
	],
	"nodes":[
		{
			"mesh":0,
			"name":"Claw finguer 1.004",
			"rotation":[
				0,
				-0.9999984502792358,
				0,
				0.001755431410856545
			],
			"scale":[
				1.0138095617294312,
				1.9873216152191162,
				1.0138092041015625
			],
			"translation":[
				-95.07904815673828,
				125.361572265625,
				-0.8630437850952148
			]
		}
	],
	"materials":[
		{
			"doubleSided":true,
			"name":"metal",
			"pbrMetallicRoughness":{}
		}
	],
	"meshes":[
		{
			"name":"Claw 20150710-21536-N4H17J-0.012",
			"primitives":[
				{
					"attributes":{
						"POSITION":0,
						"NORMAL":1
					},
					"indices":2,
					"material":0
				}
			]
		}
	],
	"accessors":[
		{
			"bufferView":0,
			"componentType":5126,
			"count":3381,
			"max":[
				13.327152252197266,
				0.8355921506881714,
				9.491536140441895
			],
			"min":[
				-1.6673089265823364,
				-3.9844138655098504e-08,
				-1.261972427368164
			],
			"type":"VEC3"
		},
		{
			"bufferView":1,
			"componentType":5126,
			"count":3381,
			"type":"VEC3"
		},
		{
			"bufferView":2,
			"componentType":5123,
			"count":6600,
			"type":"SCALAR"
		}
	],
	"bufferViews":[
		{
			"buffer":0,
			"byteLength":40572,
			"byteOffset":0,
			"target":34962
		},
		{
			"buffer":0,
			"byteLength":40572,
			"byteOffset":40572,
			"target":34962
		},
		{
			"buffer":0,
			"byteLength":13200,
			"byteOffset":81144,
			"target":34963
		}
	],
	"buffers":[
		{
			"byteLength":94344,
			"uri":"data:application/octet-stream;base64,"
		}
	]
}
