{
	"asset":{
		"generator":"Khronos glTF Blender I/O v3.5.30",
		"version":"2.0"
	},
	"scene":0,
	"scenes":[
		{
			"name":"Scene",
			"nodes":[
				0
			]
		}
	],
	"nodes":[
		{
			"mesh":0,
			"name":"Claw finguer 1.005",
			"rotation":[
				0,
				-0.9999984502792358,
				0,
				0.001755431410856545
			],
			"scale":[
				1.0138095617294312,
				1.9873214960098267,
				1.0138092041015625
			],
			"translation":[
				-114.25977325439453,
				128.0503692626953,
				-7.738423824310303
			]
		}
	],
	"materials":[
		{
			"doubleSided":true,
			"name":"metal",
			"pbrMetallicRoughness":{}
		}
	],
	"meshes":[
		{
			"name":"Claw 20150710-21536-N4H17J-0.013",
			"primitives":[
				{
					"attributes":{
						"POSITION":0,
						"NORMAL":1
					},
					"indices":2,
					"material":0
				}
			]
		}
	],
	"accessors":[
		{
			"bufferView":0,
			"componentType":5126,
			"count":1344,
			"max":[
				7.630300998687744,
				0.41779598593711853,
				2.6548643112182617
			],
			"min":[
				-7.352569103240967,
				-0.41779643297195435,
				-1.8263429403305054
			],
			"type":"VEC3"
		},
		{
			"bufferView":1,
			"componentType":5126,
			"count":1344,
			"type":"VEC3"
		},
		{
			"bufferView":2,
			"componentType":5123,
			"count":2640,
			"type":"SCALAR"
		}
	],
	"bufferViews":[
		{
			"buffer":0,
			"byteLength":16128,
			"byteOffset":0,
			"target":34962
		},
		{
			"buffer":0,
			"byteLength":16128,
			"byteOffset":16128,
			"target":34962
		},
		{
			"buffer":0,
			"byteLength":5280,
			"byteOffset":32256,
			"target":34963
		}
	],
	"buffers":[
		{
			"byteLength":37536,
			"uri":"data:application/octet-stream;base64,"
		}
	]
}
