{
	"asset":{
		"generator":"Khronos glTF Blender I/O v3.5.30",
		"version":"2.0"
	},
	"scene":0,
	"scenes":[
		{
			"name":"Scene",
			"nodes":[
				0
			]
		}
	],
	"nodes":[
		{
			"mesh":0,
			"name":"Claw 1",
			"rotation":[
				-0.0017554315272718668,
				0,
				-0.9999984502792358,
				2.0956709079200664e-07
			],
			"scale":[
				0.16942626237869263,
				0.16942626237869263,
				0.16942620277404785
			],
			"translation":[
				-97.54962158203125,
				126.66616821289062,
				0.0777067244052887
			]
		}
	],
	"materials":[
		{
			"doubleSided":true,
			"name":"Black plastic",
			"pbrMetallicRoughness":{
				"baseColorFactor":[
					0.06997819989919662,
					0.06997819989919662,
					0.06997819989919662,
					1
				],
				"metallicFactor":0,
				"roughnessFactor":0.5
			}
		}
	],
	"meshes":[
		{
			"name":"Claw 20150710-21536-N4H17J-0.008",
			"primitives":[
				{
					"attributes":{
						"POSITION":0,
						"NORMAL":1
					},
					"indices":2,
					"material":0
				}
			]
		}
	],
	"accessors":[
		{
			"bufferView":0,
			"componentType":5126,
			"count":5473,
			"max":[
				36.170997619628906,
				32.74320983886719,
				33.33330535888672
			],
			"min":[
				-51.35184097290039,
				-28.743209838867188,
				-33.33330535888672
			],
			"type":"VEC3"
		},
		{
			"bufferView":1,
			"componentType":5126,
			"count":5473,
			"type":"VEC3"
		},
		{
			"bufferView":2,
			"componentType":5123,
			"count":10680,
			"type":"SCALAR"
		}
	],
	"bufferViews":[
		{
			"buffer":0,
			"byteLength":65676,
			"byteOffset":0,
			"target":34962
		},
		{
			"buffer":0,
			"byteLength":65676,
			"byteOffset":65676,
			"target":34962
		},
		{
			"buffer":0,
			"byteLength":21360,
			"byteOffset":131352,
			"target":34963
		}
	],
	"buffers":[
		{
			"byteLength":152712,
			"uri":"data:application/octet-stream;base64,"
		}
	]
}
