{
	"asset":{
		"generator":"Khronos glTF Blender I/O v3.5.30",
		"version":"2.0"
	},
	"scene":0,
	"scenes":[
		{
			"name":"Scene",
			"nodes":[
				0
			]
		}
	],
	"nodes":[
		{
			"mesh":0,
			"name":"connectore",
			"rotation":[
				0.7071068286895752,
				0,
				0,
				0.7071068286895752
			],
			"scale":[
				3.0761945247650146,
				3.0761945247650146,
				3.0761945247650146
			],
			"translation":[
				53.34760284423828,
				-30.870468139648438,
				-6.768098831176758
			]
		}
	],
	"materials":[
		{
			"doubleSided":true,
			"name":"Black plastic",
			"pbrMetallicRoughness":{
				"baseColorFactor":[
					0.06997819989919662,
					0.06997819989919662,
					0.06997819989919662,
					1
				],
				"metallicFactor":0,
				"roughnessFactor":0.5
			}
		}
	],
	"meshes":[
		{
			"name":"Denso Small all.008",
			"primitives":[
				{
					"attributes":{
						"POSITION":0,
						"NORMAL":1
					},
					"indices":2,
					"material":0
				}
			]
		}
	],
	"accessors":[
		{
			"bufferView":0,
			"componentType":5126,
			"count":4089,
			"max":[
				1.9872512817382812,
				2.5000057220458984,
				2.4999942779541016
			],
			"min":[
				-2.2127456665039062,
				-2.499988555908203,
				-2.4999942779541016
			],
			"type":"VEC3"
		},
		{
			"bufferView":1,
			"componentType":5126,
			"count":4089,
			"type":"VEC3"
		},
		{
			"bufferView":2,
			"componentType":5123,
			"count":5814,
			"type":"SCALAR"
		}
	],
	"bufferViews":[
		{
			"buffer":0,
			"byteLength":49068,
			"byteOffset":0,
			"target":34962
		},
		{
			"buffer":0,
			"byteLength":49068,
			"byteOffset":49068,
			"target":34962
		},
		{
			"buffer":0,
			"byteLength":11628,
			"byteOffset":98136,
			"target":34963
		}
	],
	"buffers":[
		{
			"byteLength":109764,
			"uri":"data:application/octet-stream;base64,"
		}
	]
}
