{
	"asset":{
		"generator":"Khronos glTF Blender I/O v3.5.30",
		"version":"2.0"
	},
	"scene":0,
	"scenes":[
		{
			"name":"Scene",
			"nodes":[
				0
			]
		}
	],
	"nodes":[
		{
			"mesh":0,
			"name":"L0",
			"rotation":[
				0.7071068286895752,
				0,
				0,
				0.7071068286895752
			],
			"scale":[
				3.0761945247650146,
				3.0761945247650146,
				3.0761945247650146
			],
			"translation":[
				-0.2463359832763672,
				19.301727294921875,
				0.0008066296577453613
			]
		}
	],
	"materials":[
		{
			"doubleSided":true,
			"name":"white plastic",
			"pbrMetallicRoughness":{
				"baseColorFactor":[
					0.800000011920929,
					0.800000011920929,
					0.800000011920929,
					1
				],
				"metallicFactor":0.5,
				"roughnessFactor":0.5
			}
		}
	],
	"meshes":[
		{
			"name":"Denso Small all.011",
			"primitives":[
				{
					"attributes":{
						"POSITION":0,
						"NORMAL":1
					},
					"indices":2,
					"material":0
				}
			]
		}
	],
	"accessors":[
		{
			"bufferView":0,
			"componentType":5126,
			"count":50161,
			"max":[
				8.499410629272461,
				8.649600982666016,
				6.259822845458984
			],
			"min":[
				-8.500589370727539,
				-8.650398254394531,
				-11.58624267578125
			],
			"type":"VEC3"
		},
		{
			"bufferView":1,
			"componentType":5126,
			"count":50161,
			"type":"VEC3"
		},
		{
			"bufferView":2,
			"componentType":5123,
			"count":53964,
			"type":"SCALAR"
		}
	],
	"bufferViews":[
		{
			"buffer":0,
			"byteLength":601932,
			"byteOffset":0,
			"target":34962
		},
		{
			"buffer":0,
			"byteLength":601932,
			"byteOffset":601932,
			"target":34962
		},
		{
			"buffer":0,
			"byteLength":107928,
			"byteOffset":1203864,
			"target":34963
		}
	],
	"buffers":[
		{
			"byteLength":1311792,
			"uri":"data:application/octet-stream;base64,"
		}
	]
}
