{
	"asset":{
		"generator":"Khronos glTF Blender I/O v3.6.28",
		"version":"2.0"
	},
	"scene":0,
	"scenes":[
		{
			"name":"Scene",
			"nodes":[
				0
			]
		}
	],
	"nodes":[
		{
			"mesh":0,
			"name":"L1",
			"rotation":[
				0.7071068286895752,
				0,
				0,
				0.7071068286895752
			],
			"scale":[
				3.0761945247650146,
				3.0761945247650146,
				3.0761945247650146
			],
			"translation":[
				0,
				-3.814697265625e-06,
				0
			]
		}
	],
	"materials":[
		{
			"doubleSided":true,
			"name":"white plastic",
			"pbrMetallicRoughness":{
				"baseColorFactor":[
					0.800000011920929,
					0.800000011920929,
					0.800000011920929,
					1
				],
				"metallicFactor":0,
				"roughnessFactor":0.5
			}
		}
	],
	"meshes":[
		{
			"name":"Denso Small all.012",
			"primitives":[
				{
					"attributes":{
						"POSITION":0,
						"NORMAL":1
					},
					"indices":2,
					"material":0
				}
			]
		}
	],
	"accessors":[
		{
			"bufferView":0,
			"componentType":5126,
			"count":84645,
			"max":[
				5.419279098510742,
				8.806979179382324,
				4.983808517456055
			],
			"min":[
				-5.684896469116211,
				-8.807251930236816,
				-25.759428024291992
			],
			"type":"VEC3"
		},
		{
			"bufferView":1,
			"componentType":5126,
			"count":84645,
			"type":"VEC3"
		},
		{
			"bufferView":2,
			"componentType":5125,
			"count":91788,
			"type":"SCALAR"
		}
	],
	"bufferViews":[
		{
			"buffer":0,
			"byteLength":1015740,
			"byteOffset":0,
			"target":34962
		},
		{
			"buffer":0,
			"byteLength":1015740,
			"byteOffset":1015740,
			"target":34962
		},
		{
			"buffer":0,
			"byteLength":367152,
			"byteOffset":2031480,
			"target":34963
		}
	],
	"buffers":[
		{
			"byteLength":2398632,
			"uri":"data:application/octet-stream;base64,"
		}
	]
}
