{
	"asset":{
		"generator":"Khronos glTF Blender I/O v3.6.28",
		"version":"2.0"
	},
	"scene":0,
	"scenes":[
		{
			"name":"Scene",
			"nodes":[
				0
			]
		}
	],
	"nodes":[
		{
			"mesh":0,
			"name":"L2",
			"rotation":[
				0.70710688829422,
				0,
				0,
				0.7071066498756409
			],
			"scale":[
				3.0761945247650146,
				3.0761945247650146,
				3.0761942863464355
			]
		}
	],
	"materials":[
		{
			"doubleSided":true,
			"name":"white plastic",
			"pbrMetallicRoughness":{
				"baseColorFactor":[
					0.800000011920929,
					0.800000011920929,
					0.800000011920929,
					1
				],
				"metallicFactor":0,
				"roughnessFactor":0.5
			}
		}
	],
	"meshes":[
		{
			"name":"Denso Small all.018",
			"primitives":[
				{
					"attributes":{
						"POSITION":0,
						"NORMAL":1
					},
					"indices":2,
					"material":0
				}
			]
		}
	],
	"accessors":[
		{
			"bufferView":0,
			"componentType":5126,
			"count":92614,
			"max":[
				10.028968811035156,
				5.692562103271484,
				4.077991008758545
			],
			"min":[
				-8.642557144165039,
				-5.692592620849609,
				-12.102031707763672
			],
			"type":"VEC3"
		},
		{
			"bufferView":1,
			"componentType":5126,
			"count":92614,
			"type":"VEC3"
		},
		{
			"bufferView":2,
			"componentType":5125,
			"count":97485,
			"type":"SCALAR"
		}
	],
	"bufferViews":[
		{
			"buffer":0,
			"byteLength":1111368,
			"byteOffset":0,
			"target":34962
		},
		{
			"buffer":0,
			"byteLength":1111368,
			"byteOffset":1111368,
			"target":34962
		},
		{
			"buffer":0,
			"byteLength":389940,
			"byteOffset":2222736,
			"target":34963
		}
	],
	"buffers":[
		{
			"byteLength":2612676,
			"uri":"data:application/octet-stream;base64,"
		}
	]
}
