{
	"asset":{
		"generator":"Khronos glTF Blender I/O v3.5.30",
		"version":"2.0"
	},
	"scene":0,
	"scenes":[
		{
			"name":"Scene",
			"nodes":[
				0
			]
		}
	],
	"nodes":[
		{
			"mesh":0,
			"name":"L2",
			"translation":[
				-3.6209025382995605,
				120.93115997314453,
				-0.00017198920249938965
			]
		}
	],
	"materials":[
		{
			"doubleSided":true,
			"name":"white plastic",
			"pbrMetallicRoughness":{
				"baseColorFactor":[
					0.800000011920929,
					0.800000011920929,
					0.800000011920929,
					1
				],
				"metallicFactor":0,
				"roughnessFactor":0.5
			}
		}
	],
	"meshes":[
		{
			"name":"Denso Small all.018",
			"primitives":[
				{
					"attributes":{
						"POSITION":0,
						"NORMAL":1
					},
					"indices":2,
					"material":0
				}
			]
		}
	],
	"accessors":[
		{
			"bufferView":0,
			"componentType":5126,
			"count":92825,
			"max":[
				31.566648483276367,
				19.472900390625,
				17.51160430908203
			],
			"min":[
				-25.87059783935547,
				-30.300003051757812,
				-17.5113468170166
			],
			"type":"VEC3"
		},
		{
			"bufferView":1,
			"componentType":5126,
			"count":92825,
			"type":"VEC3"
		},
		{
			"bufferView":2,
			"componentType":5125,
			"count":97485,
			"type":"SCALAR"
		}
	],
	"bufferViews":[
		{
			"buffer":0,
			"byteLength":1113900,
			"byteOffset":0,
			"target":34962
		},
		{
			"buffer":0,
			"byteLength":1113900,
			"byteOffset":1113900,
			"target":34962
		},
		{
			"buffer":0,
			"byteLength":389940,
			"byteOffset":2227800,
			"target":34963
		}
	],
	"buffers":[
		{
			"byteLength":2617740,
			"uri":"data:application/octet-stream;base64,"
		}
	]
}
