{
	"asset":{
		"generator":"Khronos glTF Blender I/O v3.6.28",
		"version":"2.0"
	},
	"scene":0,
	"scenes":[
		{
			"name":"Scene",
			"nodes":[
				0
			]
		}
	],
	"nodes":[
		{
			"mesh":0,
			"name":"L4.1",
			"rotation":[
				0.5077395439147949,
				-0.5077395439147949,
				-0.4921386241912842,
				0.4921388030052185
			],
			"scale":[
				3.07619571685791,
				3.076195001602173,
				3.076195240020752
			]
		}
	],
	"materials":[
		{
			"doubleSided":true,
			"name":"white plastic",
			"pbrMetallicRoughness":{
				"baseColorFactor":[
					0.800000011920929,
					0.800000011920929,
					0.800000011920929,
					1
				],
				"metallicFactor":0,
				"roughnessFactor":0.5
			}
		}
	],
	"meshes":[
		{
			"name":"Denso Small all.010",
			"primitives":[
				{
					"attributes":{
						"POSITION":0,
						"NORMAL":1
					},
					"indices":2,
					"material":0
				}
			]
		}
	],
	"accessors":[
		{
			"bufferView":0,
			"componentType":5126,
			"count":81048,
			"max":[
				4.048962593078613,
				3.396083116531372,
				5.2334089279174805
			],
			"min":[
				-4.250454902648926,
				-3.2931716442108154,
				-5.480717658996582
			],
			"type":"VEC3"
		},
		{
			"bufferView":1,
			"componentType":5126,
			"count":81048,
			"type":"VEC3"
		},
		{
			"bufferView":2,
			"componentType":5125,
			"count":84729,
			"type":"SCALAR"
		}
	],
	"bufferViews":[
		{
			"buffer":0,
			"byteLength":972576,
			"byteOffset":0,
			"target":34962
		},
		{
			"buffer":0,
			"byteLength":972576,
			"byteOffset":972576,
			"target":34962
		},
		{
			"buffer":0,
			"byteLength":338916,
			"byteOffset":1945152,
			"target":34963
		}
	],
	"buffers":[
		{
			"byteLength":2284068,
			"uri":"data:application/octet-stream;base64,"
		}
	]
}
