{
	"asset":{
		"generator":"Khronos glTF Blender I/O v3.6.28",
		"version":"2.0"
	},
	"scene":0,
	"scenes":[
		{
			"name":"Scene",
			"nodes":[
				0
			]
		}
	],
	"nodes":[
		{
			"mesh":0,
			"name":"L4.2",
			"rotation":[
				0.5077395439147949,
				-0.5077395439147949,
				-0.4921386241912842,
				0.4921388030052185
			],
			"scale":[
				3.07619571685791,
				3.076195001602173,
				3.076195240020752
			]
		}
	],
	"materials":[
		{
			"doubleSided":true,
			"name":"Black plastic",
			"pbrMetallicRoughness":{
				"baseColorFactor":[
					0.06997819989919662,
					0.06997819989919662,
					0.06997819989919662,
					1
				],
				"metallicFactor":0,
				"roughnessFactor":0.5
			}
		}
	],
	"meshes":[
		{
			"name":"Denso Small all.009",
			"primitives":[
				{
					"attributes":{
						"POSITION":0,
						"NORMAL":1
					},
					"indices":2,
					"material":0
				}
			]
		}
	],
	"accessors":[
		{
			"bufferView":0,
			"componentType":5126,
			"count":20636,
			"max":[
				3.2422056198120117,
				3.238342523574829,
				1.1573071479797363
			],
			"min":[
				-3.257878541946411,
				-3.2613370418548584,
				-0.7561526894569397
			],
			"type":"VEC3"
		},
		{
			"bufferView":1,
			"componentType":5126,
			"count":20636,
			"type":"VEC3"
		},
		{
			"bufferView":2,
			"componentType":5123,
			"count":23730,
			"type":"SCALAR"
		}
	],
	"bufferViews":[
		{
			"buffer":0,
			"byteLength":247632,
			"byteOffset":0,
			"target":34962
		},
		{
			"buffer":0,
			"byteLength":247632,
			"byteOffset":247632,
			"target":34962
		},
		{
			"buffer":0,
			"byteLength":47460,
			"byteOffset":495264,
			"target":34963
		}
	],
	"buffers":[
		{
			"byteLength":542724,
			"uri":"data:application/octet-stream;base64,"
		}
	]
}
